# xmcd
#
# Track frame offsets:
# 150
# 32632
# 47368
# 63195
# 77561
# 102346
# 119795
# 136947
# 149577
# 162511
# 176792
# 189871
# 208484
# 224354
# 233749
# 248667
# 262747
# 276264
# 287724
#
# Disc length: 4038 seconds
#
#
# Revision: 0
# Processed by: cddbd v1.5.2PL0 Copyright (c) Steve Scherf et al.
# Submitted via: FreeRIP 2.944 
#
DISCID=1d0fc413
DTITLE=Orquestra de Violeiros - Paisagem do Sertão Volume III
DYEAR=2015
DGENRE=Caipira
TTITLE0=Seleção de Pagodes
TTITLE1=Hino de Poços de Caldas
TTITLE2=Boate Azul
TTITLE3=Amargurado
TTITLE4=Mais Uma Vez Vou Dormir Sem Meu Bem
TTITLE5=Lamento de Um Peão
TTITLE6=Caminheiro
TTITLE7=Meu Jacarandá
TTITLE8=Camisa Branca
TTITLE9=Berrante da Saudade
TTITLE10=No Colo da Noite
TTITLE11=Chalana
TTITLE12=Sessenta Dias Apaixonado
TTITLE13=Brasil Caboclo
TTITLE14=Gangorra
TTITLE15=Meu Cajuzinho
TTITLE16=Serenata de Amor
TTITLE17=Lamento de Caboclo
TTITLE18=Entrevista
EXTD=
EXTT0=
EXTT1=
EXTT2=
EXTT3=
EXTT4=
EXTT5=
EXTT6=
EXTT7=
EXTT8=
EXTT9=
EXTT10=
EXTT11=
EXTT12=
EXTT13=
EXTT14=
EXTT15=
EXTT16=
EXTT17=
EXTT18=
PLAYORDER=
